<svg id="Capa_1" enable-background="new 0 0 512 512" height="512" viewBox="0 0 512 512" width="512" xmlns="http://www.w3.org/2000/svg"><g><path d="m256 0c-141.483 0-256 114.498-256 256 0 141.483 114.498 256 256 256 141.483 0 256-114.497 256-256 0-141.483-114.498-256-256-256zm211.26 361.459c-132.017-228.66-121.527-211.047-125.275-215.686h122.821c34.91 65.933 36.755 147.139 2.454 215.686zm-137.914-12.045c-6.006 10.372-17.178 16.813-29.166 16.813-11.994 0-80.62 0-88.361 0-12.003 0-23.187-6.458-29.188-16.852l-44.181-76.523c-6.001-10.395-6.001-23.31 0-33.704l44.181-76.523c6.001-10.395 17.186-16.852 29.188-16.852h88.361c12.003 0 23.188 6.458 29.188 16.852l44.181 76.523c6.001 10.395 6.001 23.31 0 33.704-5.588 9.68-39.343 68.145-44.203 76.562zm-87.711-328.987-3.67 6.356c-2.762 4.783-1.123 10.899 3.66 13.66 4.761 2.749 10.887 1.144 13.66-3.66l9.596-16.621c78.687 2.891 147.14 44.067 188.025 105.61-.12 0-243.404-.291-249.373.648l11.875-20.567c2.762-4.783 1.123-10.899-3.66-13.66-4.781-2.76-10.898-1.123-13.66 3.66-23.512 40.502-77.553 133.042-80.539 140.794l-61.395-106.336c39.706-62.861 107.528-105.234 185.481-109.884zm-196.895 130.113c60.572 105.29 120.054 209.224 125.275 215.687h-122.82c-34.912-65.935-36.756-147.14-2.455-215.687zm14.354 235.687c264.009 0 243.484.278 249.372-.648l-61.126 105.875c-.073.127-.143.255-.21.383-78.691-2.888-147.154-44.072-188.036-105.61zm211.271 105.346c131.921-228.493 121.945-210.658 124.087-216.222l61.394 106.337c-39.785 62.988-107.667 105.244-185.481 109.885z"/><path d="m225.845 77.776h.025c5.523 0 9.987-4.477 9.987-10s-4.489-10-10.012-10-10 4.477-10 10 4.477 10 10 10z"/></g></svg>